<svg xmlns="http://www.w3.org/2000/svg" xmlns:xlink="http://www.w3.org/1999/xlink" width="500" zoomAndPan="magnify" viewBox="0 0 375 374.999991" height="500" preserveAspectRatio="xMidYMid meet" version="1.0"><defs><g/><clipPath id="75b6d2f42b"><path d="M 0 175.144531 L 375 175.144531 L 375 199.855469 L 0 199.855469 Z M 0 175.144531 " clip-rule="nonzero"/></clipPath></defs><rect x="-37.5" width="450" fill="#ffffff" y="-37.499999" height="449.999989" fill-opacity="1"/><rect x="-37.5" width="450" fill="#ffffff" y="-37.499999" height="449.999989" fill-opacity="1"/><rect x="-37.5" width="450" fill="#7c7b7c" y="-37.499999" height="449.999989" fill-opacity="1"/><g fill="#e18d8d" fill-opacity="1"><g transform="translate(157.359369, 225.107827)"><g><path d="M 26.734375 0 L 26.734375 -70.40625 L 4.953125 -70.40625 L 5.5 -77 L 55.328125 -77 L 54.78125 -70.40625 L 33.65625 -70.40625 L 33.65625 0 Z M 26.734375 0 "/></g></g></g><g clip-path="url(#75b6d2f42b)"><path fill="#7c7b7c" d="M 0 175.144531 L 374.746094 175.144531 L 374.746094 199.660156 L 0 199.660156 Z M 0 175.144531 " fill-opacity="1" fill-rule="nonzero"/></g><g fill="#e18d8d" fill-opacity="1"><g transform="translate(146.173441, 191.27555)"><g><path d="M 2.398438 -6.71875 L 2.398438 0 L 3.507812 0 L 3.507812 -6.71875 L 5.828125 -6.71875 L 5.828125 -7.773438 L 0.0664062 -7.773438 L 0.0664062 -6.71875 Z M 2.398438 -6.71875 "/></g></g></g><g fill="#e18d8d" fill-opacity="1"><g transform="translate(160.876289, 191.27555)"><g><path d="M 1.902344 -1.945312 L 5.023438 -1.945312 L 5.761719 0 L 6.949219 0 L 3.859375 -7.796875 L 3.046875 -7.796875 L -0.0429688 0 L 1.15625 0 Z M 4.617188 -2.992188 L 2.308594 -2.992188 L 3.464844 -6.023438 Z M 4.617188 -2.992188 "/></g></g></g><g fill="#e18d8d" fill-opacity="1"><g transform="translate(176.645382, 191.27555)"><g><path d="M 4.792969 -5.707031 L 5.894531 -5.75 C 5.695312 -7.15625 4.464844 -7.773438 3.277344 -7.773438 C 2.386719 -7.773438 1.460938 -7.421875 0.945312 -6.75 C 0.660156 -6.378906 0.515625 -5.9375 0.515625 -5.476562 C 0.515625 -5.421875 0.527344 -5.355469 0.527344 -5.289062 L 0.527344 -5.300781 C 0.648438 -3.695312 2.054688 -3.429688 3.253906 -3.308594 C 4.023438 -3.234375 4.816406 -3.132812 4.949219 -2.550781 C 4.96875 -2.453125 4.980469 -2.363281 4.980469 -2.285156 C 4.980469 -1.496094 4.078125 -1.035156 3.253906 -1.035156 C 2.539062 -1.035156 1.671875 -1.40625 1.59375 -2.121094 L 1.59375 -2.078125 L 1.582031 -2.242188 L 0.460938 -2.222656 L 0.472656 -2.011719 C 0.617188 -0.636719 2.054688 0.0664062 3.242188 0.0664062 C 4.628906 0.0664062 6.101562 -0.792969 6.101562 -2.277344 C 6.101562 -2.429688 6.082031 -2.617188 6.046875 -2.78125 C 5.75 -4.011719 4.441406 -4.289062 3.386719 -4.421875 C 2.527344 -4.496094 1.636719 -4.605469 1.636719 -5.496094 C 1.636719 -5.71875 1.691406 -5.9375 1.824219 -6.101562 C 2.144531 -6.507812 2.726562 -6.683594 3.253906 -6.683594 C 3.914062 -6.683594 4.640625 -6.386719 4.792969 -5.707031 Z M 4.792969 -5.707031 "/></g></g></g><g fill="#e18d8d" fill-opacity="1"><g transform="translate(191.98578, 191.27555)"><g><path d="M 2.046875 0 L 2.046875 -7.695312 L 0.945312 -7.695312 L 0.945312 0 Z M 4.9375 -7.695312 L 2.253906 -4.125 L 2.253906 -3.5625 L 5.191406 0 L 6.617188 0 L 3.375 -3.871094 L 6.3125 -7.695312 Z M 4.9375 -7.695312 "/></g></g></g><g fill="#e18d8d" fill-opacity="1"><g transform="translate(207.337163, 191.27555)"><g><path d="M 5.640625 -1.109375 L 2.066406 -1.109375 L 2.066406 -3.375 L 5.550781 -3.375 L 5.550781 -4.496094 L 2.066406 -4.496094 L 2.066406 -6.664062 L 5.628906 -6.664062 L 5.628906 -7.773438 L 0.945312 -7.773438 L 0.945312 0 L 5.640625 0 Z M 5.640625 -1.109375 "/></g></g></g><g fill="#e18d8d" fill-opacity="1"><g transform="translate(222.27085, 191.27555)"><g><path d="M 3.75 -3.902344 L 2.453125 -3.902344 L 2.453125 -3.375 L 5.253906 0 L 6.695312 0 L 4.265625 -2.890625 C 5.585938 -3.121094 6.257812 -4.15625 6.257812 -5.246094 C 6.257812 -6.464844 5.421875 -7.796875 3.75 -7.796875 L 0.945312 -7.796875 L 0.945312 0 L 2.046875 0 L 2.046875 -6.675781 L 3.75 -6.675781 C 4.683594 -6.675781 5.144531 -5.90625 5.144531 -5.246094 C 5.144531 -4.574219 4.683594 -3.902344 3.75 -3.902344 Z M 3.75 -3.902344 "/></g></g></g></svg>